<svg id="SvgjsSvg1016" width="288" height="288" xmlns="http://www.w3.org/2000/svg" version="1.1" xmlns:xlink="http://www.w3.org/1999/xlink" xmlns:svgjs="http://svgjs.com/svgjs"><defs id="SvgjsDefs1017"></defs><g id="SvgjsG1018" transform="matrix(1,0,0,1,0,0)"><svg xmlns="http://www.w3.org/2000/svg" viewBox="0 0 24 24" width="288" height="288"><path d="M16,10.27,11,7.38A2,2,0,0,0,8,9.11v5.78a2,2,0,0,0,1,1.73,2,2,0,0,0,2,0l5-2.89a2,2,0,0,0,0-3.46ZM15,12l-5,2.89V9.11L15,12ZM12,2A10,10,0,1,0,22,12,10,10,0,0,0,12,2Zm0,18a8,8,0,1,1,8-8A8,8,0,0,1,12,20Z" fill="#ffffff" class="color000 svgShape"></path></svg></g></svg>